<?xml version="1.0" encoding="utf-8"?>
<!-- Generator: Adobe Illustrator 25.2.0, SVG Export Plug-In . SVG Version: 6.00 Build 0)  -->
<svg version="1.1" id="Layer_1" xmlns="http://www.w3.org/2000/svg" xmlns:xlink="http://www.w3.org/1999/xlink" x="0px" y="0px"
	 viewBox="0 0 595.28 425.2" style="enable-background:new 0 0 595.28 425.2;" xml:space="preserve">
<style type="text/css">
	.st0{fill:#FFFFFF;}
	.st1{fill:url(#SVGID_1_);}
	.st2{fill:url(#SVGID_2_);}
	.st3{fill:#BE1E2D;}
	.st4{fill:url(#SVGID_3_);}
	.st5{fill:url(#SVGID_4_);}
	.st6{fill:url(#SVGID_5_);}
	.st7{fill:url(#SVGID_6_);}
	.st8{fill:url(#SVGID_7_);}
	.st9{fill:url(#SVGID_8_);}
	.st10{fill:url(#SVGID_9_);}
</style>
<g>
	<g>
		<path class="st0" d="M349.68,224.72l-16.57,11.4c-5.17-0.91-9.28-6.54-9.28-13.23v-40.29c0-7.3-5.17-7.45-8.67-5.02l16.57-11.4
			c5.17,0.91,9.28,6.54,9.28,13.23v40.29C341.01,227.01,346.03,227.16,349.68,224.72z M371.27,180.17l-14.14,9.73
			c-3.95-6.69-9.73-11.56-16.42-13.69l14.6-10.04C362,168.31,367.62,173.33,371.27,180.17z"/>
		<linearGradient id="SVGID_1_" gradientUnits="userSpaceOnUse" x1="324.5194" y1="168.6696" x2="345.6257" y2="208.3763">
			<stop  offset="7.807964e-03" style="stop-color:#808080"/>
			<stop  offset="0.0177" style="stop-color:#878787"/>
			<stop  offset="0.065" style="stop-color:#A7A7A7"/>
			<stop  offset="0.1183" style="stop-color:#C3C3C3"/>
			<stop  offset="0.1782" style="stop-color:#D9D9D9"/>
			<stop  offset="0.2478" style="stop-color:#EAEAEA"/>
			<stop  offset="0.3331" style="stop-color:#F6F6F6"/>
			<stop  offset="0.4513" style="stop-color:#FDFDFD"/>
			<stop  offset="0.7623" style="stop-color:#FFFFFF"/>
		</linearGradient>
		<path class="st1" d="M339.25,187.71v-8.29c0-5.42-3.12-10.27-7.22-11.41l-10.24,7.05c2.04,0.98,3.68,3.29,3.68,7.55v8.29
			L339.25,187.71z"/>
		<linearGradient id="SVGID_2_" gradientUnits="userSpaceOnUse" x1="341.0581" y1="238.517" x2="316.6778" y2="170.7068">
			<stop  offset="0" style="stop-color:#808080"/>
			<stop  offset="0.0118" style="stop-color:#898989"/>
			<stop  offset="0.057" style="stop-color:#A8A8A8"/>
			<stop  offset="0.1082" style="stop-color:#C4C4C4"/>
			<stop  offset="0.1661" style="stop-color:#DADADA"/>
			<stop  offset="0.2337" style="stop-color:#EBEBEB"/>
			<stop  offset="0.3173" style="stop-color:#F6F6F6"/>
			<stop  offset="0.4346" style="stop-color:#FDFDFD"/>
			<stop  offset="0.7603" style="stop-color:#FFFFFF"/>
		</linearGradient>
		<path class="st2" d="M339.45,204.41v15.29c0,4.76,1.9,6.75,3.66,7.57l-10.22,7.03c-4.1-1.14-7.22-5.99-7.22-11.41v-15.29
			L339.45,204.41z"/>
	</g>
	<g>
		<g>
			<path class="st0" d="M459.9,223.55c-0.49,0-0.93-0.1-1.33-0.31c-1.8-0.95-1.82-3.63-1.82-3.75v-43.79c0-0.28,0.22-0.5,0.5-0.5
				s0.5,0.22,0.5,0.5v43.79c0,0.02,0.02,2.2,1.29,2.86c0.95,0.5,2.49,0.04,4.45-1.31c0.23-0.16,0.54-0.1,0.7,0.13
				c0.16,0.23,0.1,0.54-0.13,0.7C462.44,222.99,461.05,223.55,459.9,223.55z"/>
		</g>
		<g>
			<path class="st0" d="M457.25,173.77c-0.13,0-0.25-0.06-0.35-0.15c-0.09-0.09-0.15-0.22-0.15-0.35c0-0.14,0.06-0.26,0.15-0.36
				c0.18-0.18,0.52-0.18,0.71,0c0.09,0.1,0.14,0.22,0.14,0.36c0,0.13-0.05,0.26-0.14,0.35
				C457.51,173.71,457.39,173.77,457.25,173.77z"/>
		</g>
		<g>
			<path class="st0" d="M457.26,171.65c-0.07,0-0.14-0.01-0.2-0.04c-0.06-0.02-0.11-0.06-0.16-0.1c-0.09-0.1-0.15-0.22-0.15-0.36
				c0-0.13,0.06-0.26,0.15-0.35c0.14-0.14,0.36-0.19,0.55-0.11c0.05,0.03,0.11,0.06,0.16,0.11c0.09,0.09,0.14,0.22,0.14,0.35
				c0,0.14-0.05,0.26-0.14,0.36C457.51,171.6,457.39,171.65,457.26,171.65z"/>
		</g>
	</g>
	<g>
		<polygon class="st0" points="131.05,190.3 130.96,189.67 156.7,186.25 156.7,233.5 164.53,233.5 164.53,234.13 132.22,234.13 
			132.22,233.5 140.05,233.5 140.05,189.13 		"/>
		<path class="st3" d="M158.05,170.96c0,6.34-5.07,11.51-11.4,11.51c-6.23,0-11.41-5.18-11.41-11.51c0-6.23,5.17-11.3,11.41-11.3
			C152.98,159.66,158.05,164.62,158.05,170.96z"/>
	</g>
	<g>
		<path class="st0" d="M463.27,224.72l-16.57,11.4c-5.17-0.91-9.27-6.54-9.27-13.23v-76.79c0-7.3-5.17-7.45-8.67-5.02l16.57-11.4
			c5.17,0.91,9.28,6.54,9.28,13.23v76.79C454.6,227.01,459.62,227.16,463.27,224.72z"/>
		<linearGradient id="SVGID_3_" gradientUnits="userSpaceOnUse" x1="435.7163" y1="134.7617" x2="449.4327" y2="152.5743">
			<stop  offset="0" style="stop-color:#808080"/>
			<stop  offset="0.2064" style="stop-color:#A7A7A7"/>
			<stop  offset="0.4432" style="stop-color:#CDCDCD"/>
			<stop  offset="0.6622" style="stop-color:#E8E8E8"/>
			<stop  offset="0.8547" style="stop-color:#F9F9F9"/>
			<stop  offset="1" style="stop-color:#FFFFFF"/>
		</linearGradient>
		<path class="st4" d="M439.31,145.86c0-4.52-1.74-6.61-3.43-7.58l9.75-6.71c3.96,1.16,6.89,5.83,6.89,11.1v12.59l-13.21,2.73
			V145.86z"/>
		<linearGradient id="SVGID_4_" gradientUnits="userSpaceOnUse" x1="455.5622" y1="232.8586" x2="442.5197" y2="208.5076">
			<stop  offset="0" style="stop-color:#808080"/>
			<stop  offset="0.1303" style="stop-color:#A0A0A0"/>
			<stop  offset="0.2945" style="stop-color:#C2C2C2"/>
			<stop  offset="0.4623" style="stop-color:#DDDDDD"/>
			<stop  offset="0.6328" style="stop-color:#F0F0F0"/>
			<stop  offset="0.8077" style="stop-color:#FBFBFB"/>
			<stop  offset="0.9939" style="stop-color:#FFFFFF"/>
		</linearGradient>
		<path class="st5" d="M452.69,203.85v16c0,4.12,1.48,6.48,3.4,7.6l-9.73,6.69c-3.92-1.17-6.89-5.86-6.89-11.1v-9.23L452.69,203.85z
			"/>
	</g>
	<g>
		<path class="st0" d="M401.84,227.01l-13.38,9.12c-9.58-0.91-16.42-8.67-16.42-17.33c0-6.23,3.5-10.95,9.12-14.75l12.01-8.36
			c-4.11,4.71-5.93,9.58-5.93,14.14C387.24,217.12,392.1,224.12,401.84,227.01z M431.03,224.72l-16.42,11.4
			c-5.32-0.91-9.27-6.54-9.27-13.23v-36.19c-6.08-2.58-14.75-9.12-21.14-9.12c-4.41,0-8.06,3.19-8.06,6.99
			c0-10.19,7.91-18.4,17.49-18.4c12.32,0,24.94,14.75,32.24,10.19l-3.5,2.43c0,12.92,0,40.9,0,40.9
			C422.36,227.01,427.53,227.16,431.03,224.72z"/>
		<linearGradient id="SVGID_5_" gradientUnits="userSpaceOnUse" x1="377.3117" y1="200.5306" x2="394.9472" y2="249.0342">
			<stop  offset="0.0189" style="stop-color:#808080"/>
			<stop  offset="0.0561" style="stop-color:#989898"/>
			<stop  offset="0.1136" style="stop-color:#B8B8B8"/>
			<stop  offset="0.1763" style="stop-color:#D2D2D2"/>
			<stop  offset="0.2451" style="stop-color:#E6E6E6"/>
			<stop  offset="0.3233" style="stop-color:#F4F4F4"/>
			<stop  offset="0.4186" style="stop-color:#FDFDFD"/>
			<stop  offset="0.5799" style="stop-color:#FFFFFF"/>
		</linearGradient>
		<path class="st6" d="M388.13,234.45c-8.18-1.06-14.28-7.66-14.28-15.57c0-5.17,2.74-9.53,8.37-13.34l5.1-3.55
			c-1.1,2.61-1.67,5.27-1.67,7.92c0,7.71,4.75,14.24,12.6,17.65L388.13,234.45z"/>
		<linearGradient id="SVGID_6_" gradientUnits="userSpaceOnUse" x1="426.664" y1="237.4214" x2="405.5666" y2="192.7577">
			<stop  offset="0.0399" style="stop-color:#808080"/>
			<stop  offset="0.0462" style="stop-color:#838383"/>
			<stop  offset="0.1055" style="stop-color:#A4A4A4"/>
			<stop  offset="0.1711" style="stop-color:#C1C1C1"/>
			<stop  offset="0.2447" style="stop-color:#D8D8D8"/>
			<stop  offset="0.3292" style="stop-color:#E9E9E9"/>
			<stop  offset="0.4311" style="stop-color:#F6F6F6"/>
			<stop  offset="0.5682" style="stop-color:#FDFDFD"/>
			<stop  offset="0.8916" style="stop-color:#FFFFFF"/>
		</linearGradient>
		<path class="st7" d="M414.5,234.31c-4.15-1.11-7.21-5.88-7.21-11.41v-21.1l13.63-6.29v24.19c0,4.28,1.66,6.6,3.72,7.57
			L414.5,234.31z"/>
		<linearGradient id="SVGID_7_" gradientUnits="userSpaceOnUse" x1="412.9362" y1="178.8925" x2="419.5339" y2="196.8873">
			<stop  offset="0.0177" style="stop-color:#808080"/>
			<stop  offset="0.0551" style="stop-color:#939393"/>
			<stop  offset="0.1321" style="stop-color:#B4B4B4"/>
			<stop  offset="0.215" style="stop-color:#CFCFCF"/>
			<stop  offset="0.3044" style="stop-color:#E4E4E4"/>
			<stop  offset="0.4036" style="stop-color:#F3F3F3"/>
			<stop  offset="0.5201" style="stop-color:#FCFCFC"/>
			<stop  offset="0.6969" style="stop-color:#FFFFFF"/>
		</linearGradient>
		<polygon class="st8" points="408.33,185.64 420.44,180.05 420.44,190.15 		"/>
	</g>
	<g>
		<path class="st0" d="M223.84,114.5l-31.36,23.54c-2.42,1.92-4.88,4.57-7.22,7.84c0.18-0.16,0.36-0.32,0.54-0.48
			c0.41-0.37,0.82-0.73,1.24-1.09c0.11-0.09,0.23-0.18,0.34-0.28c1.83-1.51,3.77-2.84,5.81-3.93c14.4-8.51,28.79,8.8,33.73,18.11
			l23.9-17.94C244.66,127.68,235.15,118.43,223.84,114.5z"/>
		<linearGradient id="SVGID_8_" gradientUnits="userSpaceOnUse" x1="203.6261" y1="103.5368" x2="231.4355" y2="152.9691">
			<stop  offset="0.3467" style="stop-color:#808080"/>
			<stop  offset="0.3915" style="stop-color:#9A9A9A"/>
			<stop  offset="0.456" style="stop-color:#B9B9B9"/>
			<stop  offset="0.5267" style="stop-color:#D3D3D3"/>
			<stop  offset="0.6047" style="stop-color:#E6E6E6"/>
			<stop  offset="0.6939" style="stop-color:#F4F4F4"/>
			<stop  offset="0.804" style="stop-color:#FDFDFD"/>
			<stop  offset="0.9969" style="stop-color:#FFFFFF"/>
		</linearGradient>
		<path class="st9" d="M227.59,155.7c-4.53-7.62-14.59-19.59-26.21-19.59c-1.35,0-2.68,0.16-3.99,0.48l26.87-20.17
			c10.01,3.75,18.67,11.99,24.54,23.37L227.59,155.7z"/>
		<path class="st0" d="M225.13,268.46c-1.66-21.04-15.23-33.1-28.16-64.79c-5.11-12.53-8.09-28.91-8.09-44.6
			c0-3.92,0.36-7.94,1.16-12.04c-6.63,5.43-11.72,13.36-13.96,17.93c-2.1,6.87-3.4,14.62-3.4,22.98
			c0,44.84,43.44,77.07,43.44,109.02c0,4.48-0.77,8.69-2.83,12.89C216.9,307.88,226.94,291.37,225.13,268.46z"/>
		<path class="st0" d="M225.19,183.15l-17.15,11.81c-4.8-8.12-11.81-14.02-19.92-16.6l17.71-12.17
			C213.94,168.77,220.77,174.85,225.19,183.15z"/>
		<linearGradient id="SVGID_9_" gradientUnits="userSpaceOnUse" x1="230.0562" y1="296.2737" x2="189.1634" y2="221.6687">
			<stop  offset="0" style="stop-color:#808080"/>
			<stop  offset="0.0606" style="stop-color:#A0A0A0"/>
			<stop  offset="0.129" style="stop-color:#BEBEBE"/>
			<stop  offset="0.2054" style="stop-color:#D6D6D6"/>
			<stop  offset="0.2916" style="stop-color:#E8E8E8"/>
			<stop  offset="0.3932" style="stop-color:#F5F5F5"/>
			<stop  offset="0.525" style="stop-color:#FDFDFD"/>
			<stop  offset="0.797" style="stop-color:#FFFFFF"/>
		</linearGradient>
		<path class="st10" d="M223.47,268.35c-0.96-12.13-5.89-21.01-12.72-33.29c-3.56-6.4-7.47-13.44-11.46-22.11l-15.65,11.21
			c4.42,9.35,9.87,18.14,15,26.42c9.89,15.95,19.23,31.02,19.23,46.13c0,1.43-0.07,2.79-0.22,4.11
			C221.08,293.83,224.58,282.36,223.47,268.35z"/>
	</g>
	<g>
		<g>
			<path class="st0" d="M209.62,310.34c-0.07,0-0.15-0.02-0.22-0.05c-0.25-0.12-0.35-0.42-0.23-0.67c1.89-3.87,2.78-7.9,2.78-12.67
				c0-11.29-5.34-22.53-13.35-35.92c-0.14-0.24-0.06-0.54,0.17-0.69c0.24-0.14,0.54-0.07,0.69,0.17c8.1,13.54,13.5,24.92,13.5,36.44
				c0,4.93-0.91,9.1-2.88,13.11C209.98,310.24,209.81,310.34,209.62,310.34z"/>
		</g>
		<g>
			<path class="st0" d="M197.7,258.97c-0.06,0-0.13-0.02-0.19-0.04c-0.06-0.03-0.11-0.06-0.16-0.11c-0.1-0.1-0.15-0.22-0.15-0.36
				c0-0.06,0.01-0.12,0.04-0.19c0.02-0.06,0.06-0.11,0.11-0.16c0.04-0.05,0.1-0.08,0.16-0.11c0.18-0.07,0.41-0.03,0.55,0.11
				c0.04,0.05,0.08,0.1,0.1,0.16c0.03,0.06,0.04,0.13,0.04,0.19c0,0.14-0.05,0.26-0.14,0.36c-0.05,0.05-0.11,0.08-0.17,0.11
				C197.83,258.95,197.77,258.97,197.7,258.97z"/>
		</g>
		<g>
			<path class="st0" d="M196.49,256.8c-0.06,0-0.13-0.01-0.19-0.03c-0.06-0.03-0.11-0.07-0.16-0.11c-0.05-0.05-0.08-0.11-0.11-0.17
				c-0.02-0.06-0.04-0.12-0.04-0.19c0-0.06,0.02-0.13,0.04-0.19c0.03-0.06,0.06-0.12,0.11-0.16c0.19-0.19,0.51-0.19,0.71,0
				c0.04,0.04,0.08,0.1,0.1,0.16c0.03,0.06,0.04,0.13,0.04,0.19c0,0.07-0.01,0.13-0.04,0.19c-0.02,0.06-0.06,0.12-0.1,0.17
				C196.75,256.75,196.63,256.8,196.49,256.8z"/>
		</g>
	</g>
	<g>
		<path class="st0" d="M301.66,181.68c-5.81,11.31-17.88,16.96-29.96,16.96c0.12-12.67,7.04-23.71,17.29-29.64
			c-5.09-2.94-11-4.63-17.3-4.63c-6.3,0-12.21,1.68-17.3,4.63c10.25,5.93,17.17,16.97,17.29,29.64c-12.07,0-24.14-5.66-29.96-16.96
			c-6.11,10.02-6.11,24.58,0,34.6c5.81-11.31,17.88-16.96,29.96-16.96c-0.12,12.67-7.04,23.71-17.29,29.64
			c5.09,2.94,11,4.63,17.3,4.63s12.21-1.68,17.3-4.63c-10.25-5.93-17.17-16.97-17.29-29.64c12.07,0,24.14,5.66,29.96,16.96
			C307.77,206.26,307.77,191.7,301.66,181.68z"/>
		<path class="st3" d="M302.52,181.16l-0.93-1.52l-0.81,1.59c-5.06,9.85-15.74,16.05-28.03,16.39c0.47-11.43,6.79-21.97,16.75-27.74
			l1.5-0.87l-1.5-0.87c-5.39-3.12-11.54-4.76-17.8-4.76c-6.26,0-12.41,1.65-17.8,4.76l-1.5,0.87l1.5,0.87
			c9.97,5.77,16.28,16.3,16.75,27.74c-12.29-0.34-22.97-6.54-28.03-16.39l-0.81-1.59l-0.93,1.52c-6.3,10.33-6.3,25.31,0,35.64
			l0.93,1.52l0.81-1.59c5.06-9.85,15.74-16.05,28.03-16.39c-0.47,11.43-6.79,21.97-16.75,27.74l-1.5,0.87l1.5,0.87
			c5.39,3.12,11.54,4.76,17.8,4.76c6.26,0,12.41-1.65,17.8-4.76l1.5-0.87l-1.5-0.87c-9.97-5.76-16.28-16.3-16.75-27.74
			c12.29,0.34,22.97,6.54,28.03,16.39l0.81,1.59l0.93-1.52C308.81,206.47,308.81,191.48,302.52,181.16z M256.39,169.06
			c4.71-2.41,9.97-3.68,15.3-3.68c5.33,0,10.59,1.27,15.3,3.68c-7.72,4.99-13.17,12.78-15.3,21.57
			C269.56,181.84,264.12,174.05,256.39,169.06z M241.72,214.23c-4.78-9.11-4.78-21.4,0-30.5c4.72,7.95,12.99,13.43,22.73,15.25
			C254.71,200.8,246.44,206.28,241.72,214.23z M287,228.9c-4.71,2.41-9.97,3.68-15.3,3.68c-5.33,0-10.59-1.27-15.3-3.68
			c7.72-4.99,13.17-12.78,15.3-21.57C273.83,216.12,279.27,223.9,287,228.9z M301.67,214.23c-4.72-7.95-12.99-13.43-22.73-15.25
			c9.74-1.83,18-7.3,22.73-15.25C306.45,192.84,306.45,205.12,301.67,214.23z"/>
		<g>
			<path class="st3" d="M293.42,229.63c-2.17,0-3.94,1.77-3.94,3.94c0,0.28,0.03,0.55,0.09,0.82c-5.51,2.78-11.65,4.26-17.87,4.26
				c-9.06,0-17.92-3.13-24.95-8.83l-1.89,2.33c7.56,6.12,17.09,9.49,26.84,9.49c6.82,0,13.57-1.66,19.59-4.77
				c0.62,0.4,1.34,0.64,2.13,0.64c2.17,0,3.94-1.77,3.94-3.94S295.59,229.63,293.42,229.63z M293.42,234.52
				c-0.52,0-0.94-0.42-0.94-0.94s0.42-0.94,0.94-0.94c0.52,0,0.94,0.42,0.94,0.94S293.94,234.52,293.42,234.52z"/>
			<path class="st3" d="M314.37,198.98c0-23.53-19.15-42.68-42.68-42.68c-2.65,0-5.29,0.26-7.87,0.74c-0.72-1-1.88-1.66-3.2-1.66
				c-2.07,0-3.75,1.61-3.91,3.64c-16.6,6.23-27.69,22.16-27.69,39.96c0,7.07,1.77,14,5.09,20.19c-0.58,0.69-0.95,1.57-0.95,2.54
				c0,2.17,1.77,3.94,3.94,3.94s3.94-1.77,3.94-3.94s-1.77-3.94-3.94-3.94c-0.11,0-0.22,0.02-0.32,0.03
				c-3.11-5.76-4.76-12.22-4.76-18.81c0-16.51,10.26-31.29,25.62-37.11c0.72,0.84,1.78,1.39,2.98,1.39c1.95,0,3.57-1.43,3.88-3.29
				c2.36-0.43,4.78-0.67,7.2-0.67c21.88,0,39.68,17.8,39.68,39.68c0,3.56-0.48,7.06-1.4,10.46c-2.13,0.05-3.85,1.79-3.85,3.93
				c0,2.17,1.77,3.94,3.94,3.94s3.94-1.77,3.94-3.94c0-1.12-0.47-2.12-1.22-2.84C313.84,206.78,314.37,202.91,314.37,198.98z
				 M237.1,220.76c0.52,0,0.94,0.42,0.94,0.94s-0.42,0.94-0.94,0.94s-0.94-0.42-0.94-0.94S236.58,220.76,237.1,220.76z
				 M260.62,160.26c-0.52,0-0.94-0.42-0.94-0.94c0-0.52,0.42-0.94,0.94-0.94c0.52,0,0.94,0.42,0.94,0.94
				C261.56,159.84,261.14,160.26,260.62,160.26z M310.07,214.31c-0.52,0-0.94-0.42-0.94-0.94c0-0.52,0.42-0.94,0.94-0.94
				s0.94,0.42,0.94,0.94C311.01,213.89,310.59,214.31,310.07,214.31z"/>
		</g>
		<g>
			<path class="st0" d="M271.69,234.68c-19.68,0-35.7-16.01-35.7-35.7s16.01-35.7,35.7-35.7s35.7,16.01,35.7,35.7
				S291.38,234.68,271.69,234.68z M271.69,165.48c-18.47,0-33.5,15.03-33.5,33.5s15.03,33.5,33.5,33.5c18.47,0,33.5-15.03,33.5-33.5
				S290.17,165.48,271.69,165.48z"/>
		</g>
	</g>
</g>
</svg>
